{"asset":{"version":"2.0","generator":"Blockbench 4.12.4 glTF exporter"},"scenes":[{"nodes":[16],"name":"blockbench_export"}],"scene":0,"nodes":[{"translation":[-0.125,0,0.0625],"name":"cube","mesh":0},{"translation":[-0.11249999999999999,0,-0.02499999999999991],"name":"cuboid","mesh":1},{"translation":[0,0,0.0625],"name":"cuboid","mesh":2},{"rotation":[0,0.3826834323650898,0,0.9238795325112867],"translation":[-0.06875,0,0.12499999999999994],"name":"cuboid","mesh":3},{"rotation":[0,0.7071067811865475,0,0.7071067811865476],"translation":[0.16250000000000003,0,0.07499999999999998],"name":"cuboid","mesh":4},{"rotation":[0,0.7071067811865475,0,0.7071067811865476],"translation":[0.05000000000000002,0,-0.01249999999999991],"name":"cuboid","mesh":5},{"rotation":[0,0.7071067811865475,0,0.7071067811865476],"translation":[0.037500000000000006,0,0.07499999999999998],"name":"cube","mesh":6},{"rotation":[-8.000390764101646e-17,-0.9238795325112874,-8.000390764101646e-17,-0.3826834323650882],"translation":[0.09375,0,0.13749999999999993],"name":"cuboid","mesh":7},{"rotation":[-8.528002379485892e-17,-0.8191520442889925,-8.528002379485892e-17,-0.573576436351045],"translation":[0.09374999999999993,0,0.00624999999999995],"name":"cuboid","mesh":8},{"rotation":[0,0.5372996083468241,0,0.8433914458128855],"translation":[0.03125,0,-0.125],"name":"cuboid","mesh":9},{"rotation":[0,0.5372996083468241,0,0.8433914458128855],"translation":[-0.08124999999999999,0,-0.1437499999999999],"name":"cuboid","mesh":10},{"rotation":[0,0.5372996083468241,0,0.8433914458128855],"translation":[-0.09375,0,-0.125],"name":"cube","mesh":11},{"rotation":[-7.303399302788777e-17,-0.9762960071199333,-7.303399302788777e-17,-0.21643961393810357],"translation":[0.19375000000000003,0,-0.11249999999999999],"name":"cuboid","mesh":12},{"rotation":[-7.303399302788777e-17,-0.9762960071199333,-7.303399302788777e-17,-0.21643961393810357],"translation":[0.04375,0,-0.19999999999999984],"name":"cuboid","mesh":13},{"rotation":[-7.303399302788777e-17,-0.9762960071199333,-7.303399302788777e-17,-0.21643961393810357],"translation":[0.08125000000000002,0,-0.14375000000000002],"name":"cube","mesh":14},{"rotation":[-4.966919887721591e-17,-0.9848077530122078,-4.966919887721591e-17,0.173648177666932],"translation":[0.125,0,-0.05000000000000007],"name":"cuboid","mesh":15},{"children":[0,1,2,3,4,5,6,7,8,9,10,11,12,13,14,15]}],"bufferViews":[{"buffer":0,"byteOffset":0,"byteLength":312,"target":34962,"byteStride":12},{"buffer":0,"byteOffset":312,"byteLength":312,"target":34962,"byteStride":12},{"buffer":0,"byteOffset":624,"byteLength":208,"target":34962,"byteStride":8},{"buffer":0,"byteOffset":832,"byteLength":72,"target":34963},{"buffer":0,"byteOffset":904,"byteLength":216,"target":34962,"byteStride":12},{"buffer":0,"byteOffset":1120,"byteLength":216,"target":34962,"byteStride":12},{"buffer":0,"byteOffset":1336,"byteLength":144,"target":34962,"byteStride":8},{"buffer":0,"byteOffset":1480,"byteLength":48,"target":34963},{"buffer":0,"byteOffset":1528,"byteLength":288,"target":34962,"byteStride":12},{"buffer":0,"byteOffset":1816,"byteLength":288,"target":34962,"byteStride":12},{"buffer":0,"byteOffset":2104,"byteLength":192,"target":34962,"byteStride":8},{"buffer":0,"byteOffset":2296,"byteLength":72,"target":34963},{"buffer":0,"byteOffset":2368,"byteLength":288,"target":34962,"byteStride":12},{"buffer":0,"byteOffset":2656,"byteLength":288,"target":34962,"byteStride":12},{"buffer":0,"byteOffset":2944,"byteLength":192,"target":34962,"byteStride":8},{"buffer":0,"byteOffset":3136,"byteLength":72,"target":34963},{"buffer":0,"byteOffset":3208,"byteLength":288,"target":34962,"byteStride":12},{"buffer":0,"byteOffset":3496,"byteLength":288,"target":34962,"byteStride":12},{"buffer":0,"byteOffset":3784,"byteLength":192,"target":34962,"byteStride":8},{"buffer":0,"byteOffset":3976,"byteLength":72,"target":34963},{"buffer":0,"byteOffset":4048,"byteLength":216,"target":34962,"byteStride":12},{"buffer":0,"byteOffset":4264,"byteLength":216,"target":34962,"byteStride":12},{"buffer":0,"byteOffset":4480,"byteLength":144,"target":34962,"byteStride":8},{"buffer":0,"byteOffset":4624,"byteLength":48,"target":34963},{"buffer":0,"byteOffset":4672,"byteLength":312,"target":34962,"byteStride":12},{"buffer":0,"byteOffset":4984,"byteLength":312,"target":34962,"byteStride":12},{"buffer":0,"byteOffset":5296,"byteLength":208,"target":34962,"byteStride":8},{"buffer":0,"byteOffset":5504,"byteLength":72,"target":34963},{"buffer":0,"byteOffset":5576,"byteLength":288,"target":34962,"byteStride":12},{"buffer":0,"byteOffset":5864,"byteLength":288,"target":34962,"byteStride":12},{"buffer":0,"byteOffset":6152,"byteLength":192,"target":34962,"byteStride":8},{"buffer":0,"byteOffset":6344,"byteLength":72,"target":34963},{"buffer":0,"byteOffset":6416,"byteLength":288,"target":34962,"byteStride":12},{"buffer":0,"byteOffset":6704,"byteLength":288,"target":34962,"byteStride":12},{"buffer":0,"byteOffset":6992,"byteLength":192,"target":34962,"byteStride":8},{"buffer":0,"byteOffset":7184,"byteLength":72,"target":34963},{"buffer":0,"byteOffset":7256,"byteLength":288,"target":34962,"byteStride":12},{"buffer":0,"byteOffset":7544,"byteLength":288,"target":34962,"byteStride":12},{"buffer":0,"byteOffset":7832,"byteLength":192,"target":34962,"byteStride":8},{"buffer":0,"byteOffset":8024,"byteLength":72,"target":34963},{"buffer":0,"byteOffset":8096,"byteLength":216,"target":34962,"byteStride":12},{"buffer":0,"byteOffset":8312,"byteLength":216,"target":34962,"byteStride":12},{"buffer":0,"byteOffset":8528,"byteLength":144,"target":34962,"byteStride":8},{"buffer":0,"byteOffset":8672,"byteLength":48,"target":34963},{"buffer":0,"byteOffset":8720,"byteLength":312,"target":34962,"byteStride":12},{"buffer":0,"byteOffset":9032,"byteLength":312,"target":34962,"byteStride":12},{"buffer":0,"byteOffset":9344,"byteLength":208,"target":34962,"byteStride":8},{"buffer":0,"byteOffset":9552,"byteLength":72,"target":34963},{"buffer":0,"byteOffset":9624,"byteLength":288,"target":34962,"byteStride":12},{"buffer":0,"byteOffset":9912,"byteLength":288,"target":34962,"byteStride":12},{"buffer":0,"byteOffset":10200,"byteLength":192,"target":34962,"byteStride":8},{"buffer":0,"byteOffset":10392,"byteLength":72,"target":34963},{"buffer":0,"byteOffset":10464,"byteLength":216,"target":34962,"byteStride":12},{"buffer":0,"byteOffset":10680,"byteLength":216,"target":34962,"byteStride":12},{"buffer":0,"byteOffset":10896,"byteLength":144,"target":34962,"byteStride":8},{"buffer":0,"byteOffset":11040,"byteLength":48,"target":34963},{"buffer":0,"byteOffset":11088,"byteLength":312,"target":34962,"byteStride":12},{"buffer":0,"byteOffset":11400,"byteLength":312,"target":34962,"byteStride":12},{"buffer":0,"byteOffset":11712,"byteLength":208,"target":34962,"byteStride":8},{"buffer":0,"byteOffset":11920,"byteLength":72,"target":34963},{"buffer":0,"byteOffset":11992,"byteLength":288,"target":34962,"byteStride":12},{"buffer":0,"byteOffset":12280,"byteLength":288,"target":34962,"byteStride":12},{"buffer":0,"byteOffset":12568,"byteLength":192,"target":34962,"byteStride":8},{"buffer":0,"byteOffset":12760,"byteLength":72,"target":34963}],"buffers":[{"byteLength":12832,"uri":"data:application/octet-stream;base64,"}],"accessors":[{"bufferView":0,"componentType":5126,"count":26,"max":[0,0.0062500000931322575,0.01875000074505806],"min":[-0.0625,0,-0.0625],"type":"VEC3"},{"bufferView":1,"componentType":5126,"count":26,"max":[0.8574929237365723,1,0.9191450476646423],"min":[-0.9743912220001221,-1,-1],"type":"VEC3"},{"bufferView":2,"componentType":5126,"count":26,"max":[0.3023415505886078,0.6458854079246521],"min":[0.007827134802937508,0],"type":"VEC2"},{"bufferView":3,"componentType":5123,"count":36,"max":[25],"min":[0],"type":"SCALAR"},{"bufferView":4,"componentType":5126,"count":18,"max":[0.03125,0.0062500000931322575,0.03125],"min":[-0.0062500000931322575,0,-0.03125],"type":"VEC3"},{"bufferView":5,"componentType":5126,"count":18,"max":[1,1,0.650791347026825],"min":[-0.7592566013336182,-1,-0.8944271802902222],"type":"VEC3"},{"bufferView":6,"componentType":5126,"count":18,"max":[0.550000011920929,0.5625],"min":[0.125,0.0625],"type":"VEC2"},{"bufferView":7,"componentType":5123,"count":24,"max":[17],"min":[0],"type":"SCALAR"},{"bufferView":8,"componentType":5126,"count":24,"max":[0.03125,0.0062500000931322575,3.469446951953614e-18],"min":[-0.03125,0,-0.03125],"type":"VEC3"},{"bufferView":9,"componentType":5126,"count":24,"max":[0.7071067690849304,1,0.9899494647979736],"min":[-0.8574929237365723,-1,-1],"type":"VEC3"},{"bufferView":10,"componentType":5126,"count":24,"max":[0.625,0.40625],"min":[0,0],"type":"VEC2"},{"bufferView":11,"componentType":5123,"count":36,"max":[23],"min":[0],"type":"SCALAR"},{"bufferView":12,"componentType":5126,"count":24,"max":[3.469446951953614e-18,0.0062500000931322575,0.03125],"min":[-0.03125,0,-0.03125],"type":"VEC3"},{"bufferView":13,"componentType":5126,"count":24,"max":[0.9701424837112427,1,0.6401844024658203],"min":[-1,-1,-0.9701424837112427],"type":"VEC3"},{"bufferView":14,"componentType":5126,"count":24,"max":[0.609375,0.625],"min":[0.125,0.125],"type":"VEC2"},{"bufferView":15,"componentType":5123,"count":36,"max":[23],"min":[0],"type":"SCALAR"},{"bufferView":16,"componentType":5126,"count":24,"max":[0.03125,0.0062500000931322575,3.469446951953614e-18],"min":[-0.03125,0,-0.03125],"type":"VEC3"},{"bufferView":17,"componentType":5126,"count":24,"max":[0.7071067690849304,1,0.9899494647979736],"min":[-0.8574929237365723,-1,-1],"type":"VEC3"},{"bufferView":18,"componentType":5126,"count":24,"max":[0.5625,0.59375],"min":[0,0],"type":"VEC2"},{"bufferView":19,"componentType":5123,"count":36,"max":[23],"min":[0],"type":"SCALAR"},{"bufferView":20,"componentType":5126,"count":18,"max":[0.03125,0.0062500000931322575,0.03125],"min":[-0.0062500000931322575,0,-0.03125],"type":"VEC3"},{"bufferView":21,"componentType":5126,"count":18,"max":[1,1,0.650791347026825],"min":[-0.7592566013336182,-1,-0.8944271802902222],"type":"VEC3"},{"bufferView":22,"componentType":5126,"count":18,"max":[0.550000011920929,0.5625],"min":[0.125,0.125],"type":"VEC2"},{"bufferView":23,"componentType":5123,"count":24,"max":[17],"min":[0],"type":"SCALAR"},{"bufferView":24,"componentType":5126,"count":26,"max":[0,0.0062500000931322575,0.01875000074505806],"min":[-0.0625,0,-0.0625],"type":"VEC3"},{"bufferView":25,"componentType":5126,"count":26,"max":[0.8574929237365723,1,0.9191450476646423],"min":[-0.9743912220001221,-1,-1],"type":"VEC3"},{"bufferView":26,"componentType":5126,"count":26,"max":[0.6059299111366272,0.375],"min":[0.07032713294029236,0],"type":"VEC2"},{"bufferView":27,"componentType":5123,"count":36,"max":[25],"min":[0],"type":"SCALAR"},{"bufferView":28,"componentType":5126,"count":24,"max":[3.469446951953614e-18,0.0062500000931322575,0.03125],"min":[-0.03125,0,-0.03125],"type":"VEC3"},{"bufferView":29,"componentType":5126,"count":24,"max":[0.9701424837112427,1,0.6401844024658203],"min":[-1,-1,-0.9701424837112427],"type":"VEC3"},{"bufferView":30,"componentType":5126,"count":24,"max":[0.609375,0.625],"min":[0,0],"type":"VEC2"},{"bufferView":31,"componentType":5123,"count":36,"max":[23],"min":[0],"type":"SCALAR"},{"bufferView":32,"componentType":5126,"count":24,"max":[3.469446951953614e-18,0.0062500000931322575,0.03125],"min":[-0.03125,0,-0.03125],"type":"VEC3"},{"bufferView":33,"componentType":5126,"count":24,"max":[0.9701424837112427,1,0.6401844024658203],"min":[-1,-1,-0.9701424837112427],"type":"VEC3"},{"bufferView":34,"componentType":5126,"count":24,"max":[0.671875,0.6875],"min":[0.015625,0],"type":"VEC2"},{"bufferView":35,"componentType":5123,"count":36,"max":[23],"min":[0],"type":"SCALAR"},{"bufferView":36,"componentType":5126,"count":24,"max":[0.03125,0.0062500000931322575,3.469446951953614e-18],"min":[-0.03125,0,-0.03125],"type":"VEC3"},{"bufferView":37,"componentType":5126,"count":24,"max":[0.7071067690849304,1,0.9899494647979736],"min":[-0.8574929237365723,-1,-1],"type":"VEC3"},{"bufferView":38,"componentType":5126,"count":24,"max":[0.4375,0.65625],"min":[0.0625,0.25],"type":"VEC2"},{"bufferView":39,"componentType":5123,"count":36,"max":[23],"min":[0],"type":"SCALAR"},{"bufferView":40,"componentType":5126,"count":18,"max":[0.03125,0.0062500000931322575,0.03125],"min":[-0.0062500000931322575,0,-0.03125],"type":"VEC3"},{"bufferView":41,"componentType":5126,"count":18,"max":[1,1,0.650791347026825],"min":[-0.7592566013336182,-1,-0.8944271802902222],"type":"VEC3"},{"bufferView":42,"componentType":5126,"count":18,"max":[0.612500011920929,0.625],"min":[0,0],"type":"VEC2"},{"bufferView":43,"componentType":5123,"count":24,"max":[17],"min":[0],"type":"SCALAR"},{"bufferView":44,"componentType":5126,"count":26,"max":[0,0.0062500000931322575,0.01875000074505806],"min":[-0.0625,0,-0.0625],"type":"VEC3"},{"bufferView":45,"componentType":5126,"count":26,"max":[0.8574929237365723,1,0.9191450476646423],"min":[-0.9743912220001221,-1,-1],"type":"VEC3"},{"bufferView":46,"componentType":5126,"count":26,"max":[0.5,0.6458854079246521],"min":[0.007827134802937508,0.0625],"type":"VEC2"},{"bufferView":47,"componentType":5123,"count":36,"max":[25],"min":[0],"type":"SCALAR"},{"bufferView":48,"componentType":5126,"count":24,"max":[0.03125,0.0062500000931322575,3.469446951953614e-18],"min":[-0.03125,0,-0.03125],"type":"VEC3"},{"bufferView":49,"componentType":5126,"count":24,"max":[0.7071067690849304,1,0.9899494647979736],"min":[-0.8574929237365723,-1,-1],"type":"VEC3"},{"bufferView":50,"componentType":5126,"count":24,"max":[0.6875,0.5],"min":[0.25,0.0625],"type":"VEC2"},{"bufferView":51,"componentType":5123,"count":36,"max":[23],"min":[0],"type":"SCALAR"},{"bufferView":52,"componentType":5126,"count":18,"max":[0.03125,0.0062500000931322575,0.03125],"min":[-0.0062500000931322575,0,-0.03125],"type":"VEC3"},{"bufferView":53,"componentType":5126,"count":18,"max":[1,1,0.650791347026825],"min":[-0.7592566013336182,-1,-0.8944271802902222],"type":"VEC3"},{"bufferView":54,"componentType":5126,"count":18,"max":[0.612500011920929,0.625],"min":[0.07500000298023224,0.0625],"type":"VEC2"},{"bufferView":55,"componentType":5123,"count":24,"max":[17],"min":[0],"type":"SCALAR"},{"bufferView":56,"componentType":5126,"count":26,"max":[0,0.0062500000931322575,0.01875000074505806],"min":[-0.0625,0,-0.0625],"type":"VEC3"},{"bufferView":57,"componentType":5126,"count":26,"max":[0.8574929237365723,1,0.9191450476646423],"min":[-0.9743912220001221,-1,-1],"type":"VEC3"},{"bufferView":58,"componentType":5126,"count":26,"max":[0.6059299111366272,0.625],"min":[0,0],"type":"VEC2"},{"bufferView":59,"componentType":5123,"count":36,"max":[25],"min":[0],"type":"SCALAR"},{"bufferView":60,"componentType":5126,"count":24,"max":[3.469446951953614e-18,0.0062500000931322575,0.03125],"min":[-0.03125,0,-0.03125],"type":"VEC3"},{"bufferView":61,"componentType":5126,"count":24,"max":[0.9701424837112427,1,0.6401844024658203],"min":[-1,-1,-0.9701424837112427],"type":"VEC3"},{"bufferView":62,"componentType":5126,"count":24,"max":[0.671875,0.5625],"min":[0.125,0.125],"type":"VEC2"},{"bufferView":63,"componentType":5123,"count":36,"max":[23],"min":[0],"type":"SCALAR"}],"materials":[{"pbrMetallicRoughness":{"metallicFactor":0,"roughnessFactor":1,"baseColorTexture":{"index":0}},"alphaMode":"MASK","alphaCutoff":0.05,"doubleSided":true}],"textures":[{"sampler":0,"source":0,"name":"glass"}],"samplers":[{"magFilter":9728,"minFilter":9728,"wrapS":33071,"wrapT":33071}],"images":[{"mimeType":"image/png","uri":"data:image/png;base64,"}],"meshes":[{"primitives":[{"mode":4,"attributes":{"POSITION":0,"NORMAL":1,"TEXCOORD_0":2},"indices":3,"material":0}]},{"primitives":[{"mode":4,"attributes":{"POSITION":4,"NORMAL":5,"TEXCOORD_0":6},"indices":7,"material":0}]},{"primitives":[{"mode":4,"attributes":{"POSITION":8,"NORMAL":9,"TEXCOORD_0":10},"indices":11,"material":0}]},{"primitives":[{"mode":4,"attributes":{"POSITION":12,"NORMAL":13,"TEXCOORD_0":14},"indices":15,"material":0}]},{"primitives":[{"mode":4,"attributes":{"POSITION":16,"NORMAL":17,"TEXCOORD_0":18},"indices":19,"material":0}]},{"primitives":[{"mode":4,"attributes":{"POSITION":20,"NORMAL":21,"TEXCOORD_0":22},"indices":23,"material":0}]},{"primitives":[{"mode":4,"attributes":{"POSITION":24,"NORMAL":25,"TEXCOORD_0":26},"indices":27,"material":0}]},{"primitives":[{"mode":4,"attributes":{"POSITION":28,"NORMAL":29,"TEXCOORD_0":30},"indices":31,"material":0}]},{"primitives":[{"mode":4,"attributes":{"POSITION":32,"NORMAL":33,"TEXCOORD_0":34},"indices":35,"material":0}]},{"primitives":[{"mode":4,"attributes":{"POSITION":36,"NORMAL":37,"TEXCOORD_0":38},"indices":39,"material":0}]},{"primitives":[{"mode":4,"attributes":{"POSITION":40,"NORMAL":41,"TEXCOORD_0":42},"indices":43,"material":0}]},{"primitives":[{"mode":4,"attributes":{"POSITION":44,"NORMAL":45,"TEXCOORD_0":46},"indices":47,"material":0}]},{"primitives":[{"mode":4,"attributes":{"POSITION":48,"NORMAL":49,"TEXCOORD_0":50},"indices":51,"material":0}]},{"primitives":[{"mode":4,"attributes":{"POSITION":52,"NORMAL":53,"TEXCOORD_0":54},"indices":55,"material":0}]},{"primitives":[{"mode":4,"attributes":{"POSITION":56,"NORMAL":57,"TEXCOORD_0":58},"indices":59,"material":0}]},{"primitives":[{"mode":4,"attributes":{"POSITION":60,"NORMAL":61,"TEXCOORD_0":62},"indices":63,"material":0}]}]}