{
  "accessors": [
    {
      "bufferView": 2,
      "componentType": 5126,
      "count": 348,
      "max": [
        11.638923645019531,
        11.319616317749023,
        2.1232869625091553
      ],
      "min": [
        -12.381346702575684,
        -11.25714111328125,
        0.22931300103664398
      ],
      "type": "VEC3"
    },
    {
      "bufferView": 2,
      "byteOffset": 4176,
      "componentType": 5126,
      "count": 348,
      "max": [
        0.9999903440475464,
        0.9999903440475464,
        1.0
      ],
      "min": [
        -0.9999903440475464,
        -0.9999903440475464,
        0.0
      ],
      "type": "VEC3"
    },
    {
      "bufferView": 3,
      "componentType": 5126,
      "count": 348,
      "max": [
        1.0,
        0.9999990463256836,
        1.0,
        1.0
      ],
      "min": [
        -0.3972315490245819,
        -0.9999971389770508,
        0.0,
        1.0
      ],
      "type": "VEC4"
    },
    {
      "bufferView": 1,
      "componentType": 5126,
      "count": 348,
      "max": [
        0.9900000095367432,
        0.9900000095367432
      ],
      "min": [
        0.009999999776482582,
        0.06520000100135803
      ],
      "type": "VEC2"
    },
    {
      "bufferView": 0,
      "componentType": 5125,
      "count": 522,
      "type": "SCALAR"
    }
  ],
  "asset": {
    "extras": {
      "author": "Marim_Studio (https://sketchfab.com/marim_studio)",
      "license": "CC-BY-4.0 (http://creativecommons.org/licenses/by/4.0/)",
      "source": "https://sketchfab.com/3d-models/low-poly-papers-set-2edf57ce2e6c4475bd4897b9c91b0a77",
      "title": "Low-poly Papers Set"
    },
    "generator": "Sketchfab-12.65.0",
    "version": "2.0"
  },
  "bufferViews": [
    {
      "buffer": 0,
      "byteLength": 2088,
      "name": "floatBufferViews",
      "target": 34963
    },
    {
      "buffer": 0,
      "byteLength": 2784,
      "byteOffset": 2088,
      "byteStride": 8,
      "name": "floatBufferViews",
      "target": 34962
    },
    {
      "buffer": 0,
      "byteLength": 8352,
      "byteOffset": 4872,
      "byteStride": 12,
      "name": "floatBufferViews",
      "target": 34962
    },
    {
      "buffer": 0,
      "byteLength": 5568,
      "byteOffset": 13224,
      "byteStride": 16,
      "name": "floatBufferViews",
      "target": 34962
    }
  ],
  "buffers": [
    {
      "byteLength": 18792,
      "uri": "scene.bin"
    }
  ],
  "images": [
    {
      "uri": "textures/lambert3SG_baseColor.jpeg"
    },
    {
      "uri": "textures/lambert3SG_metallicRoughness.png"
    },
    {
      "uri": "textures/lambert3SG_normal.png"
    }
  ],
  "materials": [
    {
      "doubleSided": true,
      "name": "lambert3SG",
      "normalTexture": {
        "index": 2
      },
      "occlusionTexture": {
        "index": 1
      },
      "pbrMetallicRoughness": {
        "baseColorTexture": {
          "index": 0
        },
        "metallicRoughnessTexture": {
          "index": 1
        }
      }
    }
  ],
  "meshes": [
    {
      "name": "Object_0",
      "primitives": [
        {
          "attributes": {
            "NORMAL": 1,
            "POSITION": 0,
            "TANGENT": 2,
            "TEXCOORD_0": 3
          },
          "indices": 4,
          "material": 0,
          "mode": 4
        }
      ]
    }
  ],
  "nodes": [
    {
      "children": [
        1
      ],
      "matrix": [
        1.0,
        0.0,
        0.0,
        0.0,
        0.0,
        2.220446049250313e-16,
        -1.0,
        0.0,
        0.0,
        1.0,
        2.220446049250313e-16,
        0.0,
        0.0,
        0.0,
        0.0,
        1.0
      ],
      "name": "Sketchfab_model"
    },
    {
      "children": [
        2
      ],
      "name": "d9314c173dff4408b42fff7410496c87.obj.cleaner.materialmerger.gles"
    },
    {
      "mesh": 0,
      "name": "Object_2"
    }
  ],
  "samplers": [
    {
      "magFilter": 9729,
      "minFilter": 9987,
      "wrapS": 10497,
      "wrapT": 10497
    }
  ],
  "scene": 0,
  "scenes": [
    {
      "name": "Sketchfab_Scene",
      "nodes": [
        0
      ]
    }
  ],
  "textures": [
    {
      "sampler": 0,
      "source": 0
    },
    {
      "sampler": 0,
      "source": 1
    },
    {
      "sampler": 0,
      "source": 2
    }
  ]
}
