{"asset":{"version":"2.0","generator":"Blockbench 4.10.4 glTF exporter"},"scenes":[{"nodes":[6],"name":"blockbench_export"}],"scene":0,"nodes":[{"translation":[0,2.4375,0],"name":"tube","mesh":0},{"rotation":[0,0.3826834323650898,0,0.9238795325112867],"name":"cube","mesh":1},{"name":"cylinder","mesh":2},{"translation":[0,2.9375,0],"name":"sphere","mesh":3},{"translation":[0,2.6875,0],"name":"cylinder","mesh":4},{"translation":[0,2.75,0],"name":"cylinder","mesh":5},{"children":[0,1,2,3,4,5]}],"bufferViews":[{"buffer":0,"byteOffset":0,"byteLength":2304,"target":34962,"byteStride":12},{"buffer":0,"byteOffset":2304,"byteLength":2304,"target":34962,"byteStride":12},{"buffer":0,"byteOffset":4608,"byteLength":1536,"target":34962,"byteStride":8},{"buffer":0,"byteOffset":6144,"byteLength":576,"target":34963},{"buffer":0,"byteOffset":6720,"byteLength":288,"target":34962,"byteStride":12},{"buffer":0,"byteOffset":7008,"byteLength":288,"target":34962,"byteStride":12},{"buffer":0,"byteOffset":7296,"byteLength":192,"target":34962,"byteStride":8},{"buffer":0,"byteOffset":7488,"byteLength":72,"target":34963},{"buffer":0,"byteOffset":7560,"byteLength":1440,"target":34962,"byteStride":12},{"buffer":0,"byteOffset":9000,"byteLength":1440,"target":34962,"byteStride":12},{"buffer":0,"byteOffset":10440,"byteLength":960,"target":34962,"byteStride":8},{"buffer":0,"byteOffset":11400,"byteLength":288,"target":34963},{"buffer":0,"byteOffset":11688,"byteLength":3168,"target":34962,"byteStride":12},{"buffer":0,"byteOffset":14856,"byteLength":3168,"target":34962,"byteStride":12},{"buffer":0,"byteOffset":18024,"byteLength":2112,"target":34962,"byteStride":8},{"buffer":0,"byteOffset":20136,"byteLength":720,"target":34963},{"buffer":0,"byteOffset":20856,"byteLength":1440,"target":34962,"byteStride":12},{"buffer":0,"byteOffset":22296,"byteLength":1440,"target":34962,"byteStride":12},{"buffer":0,"byteOffset":23736,"byteLength":960,"target":34962,"byteStride":8},{"buffer":0,"byteOffset":24696,"byteLength":288,"target":34963},{"buffer":0,"byteOffset":24984,"byteLength":1440,"target":34962,"byteStride":12},{"buffer":0,"byteOffset":26424,"byteLength":1440,"target":34962,"byteStride":12},{"buffer":0,"byteOffset":27864,"byteLength":960,"target":34962,"byteStride":8},{"buffer":0,"byteOffset":28824,"byteLength":288,"target":34963}],"buffers":[{"byteLength":29112,"uri":"data:application/octet-stream;base64,"}],"accessors":[{"bufferView":0,"componentType":5126,"count":192,"max":[0.5,0.75,0.5],"min":[-0.5,0.125,-0.5],"type":"VEC3"},{"bufferView":1,"componentType":5126,"count":192,"max":[0.9319348931312561,1,0.9319348931312561],"min":[-0.9319348931312561,-1,-0.9319348931312561],"type":"VEC3"},{"bufferView":2,"componentType":5126,"count":192,"max":[0.35685619711875916,0.375],"min":[0.0011974928202107549,0],"type":"VEC2"},{"bufferView":3,"componentType":5123,"count":288,"max":[191],"min":[0],"type":"SCALAR"},{"bufferView":4,"componentType":5126,"count":24,"max":[0.03125,2.875,0.03125],"min":[-0.03125,0,-0.03125],"type":"VEC3"},{"bufferView":5,"componentType":5126,"count":24,"max":[1,1,1],"min":[-1,-1,-1],"type":"VEC3"},{"bufferView":6,"componentType":5126,"count":24,"max":[0.2578125,0.65625],"min":[0.015625,0.0078125],"type":"VEC2"},{"bufferView":7,"componentType":5123,"count":36,"max":[23],"min":[0],"type":"SCALAR"},{"bufferView":8,"componentType":5126,"count":120,"max":[0.28125,0.0625,0.28125],"min":[-0.28125,0,-0.28125],"type":"VEC3"},{"bufferView":9,"componentType":5126,"count":120,"max":[1,1,1],"min":[-1,-1,-1],"type":"VEC3"},{"bufferView":10,"componentType":5126,"count":120,"max":[0.3173234462738037,0.2734375],"min":[0.002989062573760748,0],"type":"VEC2"},{"bufferView":11,"componentType":5123,"count":144,"max":[119],"min":[0],"type":"SCALAR"},{"bufferView":12,"componentType":5126,"count":264,"max":[0.125,0.125,0.125],"min":[-0.125,-0.125,-0.125],"type":"VEC3"},{"bufferView":13,"componentType":5126,"count":264,"max":[0.9659258127212524,0.9659258127212524,0.9659258127212524],"min":[-0.9659258127212524,-0.9659258127212524,-0.9659258127212524],"type":"VEC3"},{"bufferView":14,"componentType":5126,"count":264,"max":[0.3008404076099396,0.2578125],"min":[0.00028046875377185643,0.004045963287353516],"type":"VEC2"},{"bufferView":15,"componentType":5123,"count":360,"max":[263],"min":[0],"type":"SCALAR"},{"bufferView":16,"componentType":5126,"count":120,"max":[0.125,0.0625,0.125],"min":[-0.125,0,-0.125],"type":"VEC3"},{"bufferView":17,"componentType":5126,"count":120,"max":[1,1,1],"min":[-1,-1,-1],"type":"VEC3"},{"bufferView":18,"componentType":5126,"count":120,"max":[0.125,0.140625],"min":[0.003064843825995922,0],"type":"VEC2"},{"bufferView":19,"componentType":5123,"count":144,"max":[119],"min":[0],"type":"SCALAR"},{"bufferView":20,"componentType":5126,"count":120,"max":[0.0625,0.125,0.0625],"min":[-0.0625,-0.0625,-0.0625],"type":"VEC3"},{"bufferView":21,"componentType":5126,"count":120,"max":[1,1,1],"min":[-1,-1,-1],"type":"VEC3"},{"bufferView":22,"componentType":5126,"count":120,"max":[0.109375,0.1171875],"min":[0.001533593749627471,0.0078125],"type":"VEC2"},{"bufferView":23,"componentType":5123,"count":144,"max":[119],"min":[0],"type":"SCALAR"}],"materials":[{"pbrMetallicRoughness":{"metallicFactor":0,"roughnessFactor":1,"baseColorTexture":{"index":0}},"alphaMode":"MASK","alphaCutoff":0.05,"doubleSided":true}],"textures":[{"sampler":0,"source":0,"name":"texture"}],"samplers":[{"magFilter":9728,"minFilter":9728,"wrapS":33071,"wrapT":33071}],"images":[{"mimeType":"image/png","uri":"data:image/png;base64,"}],"meshes":[{"primitives":[{"mode":4,"attributes":{"POSITION":0,"NORMAL":1,"TEXCOORD_0":2},"indices":3,"material":0}]},{"primitives":[{"mode":4,"attributes":{"POSITION":4,"NORMAL":5,"TEXCOORD_0":6},"indices":7,"material":0}]},{"primitives":[{"mode":4,"attributes":{"POSITION":8,"NORMAL":9,"TEXCOORD_0":10},"indices":11,"material":0}]},{"primitives":[{"mode":4,"attributes":{"POSITION":12,"NORMAL":13,"TEXCOORD_0":14},"indices":15,"material":0}]},{"primitives":[{"mode":4,"attributes":{"POSITION":16,"NORMAL":17,"TEXCOORD_0":18},"indices":19,"material":0}]},{"primitives":[{"mode":4,"attributes":{"POSITION":20,"NORMAL":21,"TEXCOORD_0":22},"indices":23,"material":0}]}]}