{"asset":{"version":"2.0","generator":"Blockbench 4.11.0 glTF exporter"},"scenes":[{"nodes":[26],"name":"blockbench_export"}],"scene":0,"nodes":[{"rotation":[-0.22495105434386498,0,0,0.9743700647852352],"translation":[0,0.6687500000000001,0],"name":"body","mesh":0},{"translation":[0,1.0625,-0.25],"name":"neck","mesh":1},{"rotation":[-0.6819983600624985,0,0,0.7313537016191706],"translation":[0,1.549999999999998,-0.18749999999999992],"name":"head","mesh":2},{"rotation":[-0.8767267557075077,0,0,0.48098876891938774],"translation":[0,1.506250000000001,-0.2875000000000003],"name":"beakUpper","mesh":3},{"rotation":[-0.8681988144891422,0,0,0.49621650367520836],"translation":[0,1.5000000000000013,-0.28125000000000044],"name":"beakLower","mesh":4},{"rotation":[0.6482366968055229,0.03964785485432085,-0.04642167365347452,0.758987655192972],"translation":[0.05,1.55625,-0.23125],"name":"eyeR","mesh":5},{"rotation":[0.6482366968055229,-0.03964785485432085,0.04642167365347452,0.758987655192972],"translation":[-0.05,1.55625,-0.23125],"name":"eyeL","mesh":6},{"rotation":[0.41071885261347724,0,0,0.9117620435770886],"translation":[0,0.8999999999999999,0.062499999999999944],"name":"tail","mesh":7},{"rotation":[0.36311838749687714,0.07387727089926548,-0.1851748420230361,0.9101634267470253],"translation":[-0.0500000000000006,0.9906250000000019,-0.043749999999999956],"name":"wingL","mesh":8},{"rotation":[0.36311838749687714,-0.07387727089926548,0.1851748420230361,0.9101634267470253],"translation":[0.0500000000000006,0.9906250000000019,-0.043749999999999956],"name":"wingR","mesh":9},{"translation":[0,-0.13125000000000003,-0.00437499999999999],"name":"legbottomL","mesh":10},{"translation":[-6.938893903907228e-18,-6.661338147750939e-16,0.0043749999999999865],"name":"kneeL2","children":[10]},{"rotation":[-0.11320321376790671,0,0,0.9935718556765875],"translation":[-6.938893903907228e-18,-6.661338147750939e-16,0.0043749999999999865],"name":"kneeJointL","mesh":11},{"rotation":[0.043619387365336,0,0,0.9990482215818578],"translation":[6.938893903907228e-18,-0.2874999999999991,0.0625],"name":"kneeL","children":[11,12]},{"rotation":[-0.12186934340514746,0,0,0.992546151641322],"translation":[6.938893903907228e-18,-0.08749999999999958,0.024999999999999998],"name":"legTopL","mesh":12},{"name":"legL2","children":[13,14]},{"rotation":[0,0,-0.1993679344171972,0.9799247046208296],"name":"legJointL","mesh":13},{"rotation":[-0.043619387365336,0,0,0.9990482215818578],"translation":[-0.0625,0.6812499999999998,-0.04374999999999999],"name":"legL","children":[15,16]},{"translation":[0,-0.13125000000000003,-0.00437499999999999],"name":"legbottomR","mesh":14},{"translation":[6.938893903907228e-18,-6.661338147750939e-16,0.0043749999999999865],"name":"kneeR2","children":[18]},{"rotation":[-0.11320321376790671,0,0,0.9935718556765875],"translation":[6.938893903907228e-18,-6.661338147750939e-16,0.0043749999999999865],"name":"kneeJointR","mesh":15},{"rotation":[0.043619387365336,0,0,0.9990482215818578],"translation":[-6.938893903907228e-18,-0.2874999999999991,0.0625],"name":"kneeR","children":[19,20]},{"rotation":[-0.12186934340514746,0,0,0.992546151641322],"translation":[-6.938893903907228e-18,-0.08749999999999958,0.024999999999999998],"name":"legTopR","mesh":16},{"name":"legR2","children":[21,22]},{"rotation":[0,0,0.1993679344171972,0.9799247046208296],"name":"legJointR","mesh":17},{"rotation":[-0.043619387365336,0,0,0.9990482215818578],"translation":[0.0625,0.6812499999999998,-0.04374999999999999],"name":"legR","children":[23,24]},{"children":[0,1,2,3,4,5,6,7,8,9,17,25]}],"bufferViews":[{"buffer":0,"byteOffset":0,"byteLength":1944,"target":34962,"byteStride":12},{"buffer":0,"byteOffset":1944,"byteLength":1944,"target":34962,"byteStride":12},{"buffer":0,"byteOffset":3888,"byteLength":1296,"target":34962,"byteStride":8},{"buffer":0,"byteOffset":5184,"byteLength":396,"target":34963},{"buffer":0,"byteOffset":5580,"byteLength":1320,"target":34962,"byteStride":12},{"buffer":0,"byteOffset":6900,"byteLength":1320,"target":34962,"byteStride":12},{"buffer":0,"byteOffset":8220,"byteLength":880,"target":34962,"byteStride":8},{"buffer":0,"byteOffset":9100,"byteLength":300,"target":34963},{"buffer":0,"byteOffset":9400,"byteLength":1176,"target":34962,"byteStride":12},{"buffer":0,"byteOffset":10576,"byteLength":1176,"target":34962,"byteStride":12},{"buffer":0,"byteOffset":11752,"byteLength":784,"target":34962,"byteStride":8},{"buffer":0,"byteOffset":12536,"byteLength":252,"target":34963},{"buffer":0,"byteOffset":12788,"byteLength":192,"target":34962,"byteStride":12},{"buffer":0,"byteOffset":12980,"byteLength":192,"target":34962,"byteStride":12},{"buffer":0,"byteOffset":13172,"byteLength":128,"target":34962,"byteStride":8},{"buffer":0,"byteOffset":13300,"byteLength":36,"target":34963},{"buffer":0,"byteOffset":13336,"byteLength":192,"target":34962,"byteStride":12},{"buffer":0,"byteOffset":13528,"byteLength":192,"target":34962,"byteStride":12},{"buffer":0,"byteOffset":13720,"byteLength":128,"target":34962,"byteStride":8},{"buffer":0,"byteOffset":13848,"byteLength":36,"target":34963},{"buffer":0,"byteOffset":13884,"byteLength":1176,"target":34962,"byteStride":12},{"buffer":0,"byteOffset":15060,"byteLength":1176,"target":34962,"byteStride":12},{"buffer":0,"byteOffset":16236,"byteLength":784,"target":34962,"byteStride":8},{"buffer":0,"byteOffset":17020,"byteLength":252,"target":34963},{"buffer":0,"byteOffset":17272,"byteLength":1176,"target":34962,"byteStride":12},{"buffer":0,"byteOffset":18448,"byteLength":1176,"target":34962,"byteStride":12},{"buffer":0,"byteOffset":19624,"byteLength":784,"target":34962,"byteStride":8},{"buffer":0,"byteOffset":20408,"byteLength":252,"target":34963},{"buffer":0,"byteOffset":20660,"byteLength":864,"target":34962,"byteStride":12},{"buffer":0,"byteOffset":21524,"byteLength":864,"target":34962,"byteStride":12},{"buffer":0,"byteOffset":22388,"byteLength":576,"target":34962,"byteStride":8},{"buffer":0,"byteOffset":22964,"byteLength":216,"target":34963},{"buffer":0,"byteOffset":23180,"byteLength":1824,"target":34962,"byteStride":12},{"buffer":0,"byteOffset":25004,"byteLength":1824,"target":34962,"byteStride":12},{"buffer":0,"byteOffset":26828,"byteLength":1216,"target":34962,"byteStride":8},{"buffer":0,"byteOffset":28044,"byteLength":456,"target":34963},{"buffer":0,"byteOffset":28500,"byteLength":1824,"target":34962,"byteStride":12},{"buffer":0,"byteOffset":30324,"byteLength":1824,"target":34962,"byteStride":12},{"buffer":0,"byteOffset":32148,"byteLength":1216,"target":34962,"byteStride":8},{"buffer":0,"byteOffset":33364,"byteLength":456,"target":34963},{"buffer":0,"byteOffset":33820,"byteLength":1560,"target":34962,"byteStride":12},{"buffer":0,"byteOffset":35380,"byteLength":1560,"target":34962,"byteStride":12},{"buffer":0,"byteOffset":36940,"byteLength":1040,"target":34962,"byteStride":8},{"buffer":0,"byteOffset":37980,"byteLength":360,"target":34963},{"buffer":0,"byteOffset":38340,"byteLength":600,"target":34962,"byteStride":12},{"buffer":0,"byteOffset":38940,"byteLength":600,"target":34962,"byteStride":12},{"buffer":0,"byteOffset":39540,"byteLength":400,"target":34962,"byteStride":8},{"buffer":0,"byteOffset":39940,"byteLength":120,"target":34963},{"buffer":0,"byteOffset":40060,"byteLength":1080,"target":34962,"byteStride":12},{"buffer":0,"byteOffset":41140,"byteLength":1080,"target":34962,"byteStride":12},{"buffer":0,"byteOffset":42220,"byteLength":720,"target":34962,"byteStride":8},{"buffer":0,"byteOffset":42940,"byteLength":240,"target":34963},{"buffer":0,"byteOffset":43180,"byteLength":1176,"target":34962,"byteStride":12},{"buffer":0,"byteOffset":44356,"byteLength":1176,"target":34962,"byteStride":12},{"buffer":0,"byteOffset":45532,"byteLength":784,"target":34962,"byteStride":8},{"buffer":0,"byteOffset":46316,"byteLength":252,"target":34963},{"buffer":0,"byteOffset":46568,"byteLength":1560,"target":34962,"byteStride":12},{"buffer":0,"byteOffset":48128,"byteLength":1560,"target":34962,"byteStride":12},{"buffer":0,"byteOffset":49688,"byteLength":1040,"target":34962,"byteStride":8},{"buffer":0,"byteOffset":50728,"byteLength":360,"target":34963},{"buffer":0,"byteOffset":51088,"byteLength":600,"target":34962,"byteStride":12},{"buffer":0,"byteOffset":51688,"byteLength":600,"target":34962,"byteStride":12},{"buffer":0,"byteOffset":52288,"byteLength":400,"target":34962,"byteStride":8},{"buffer":0,"byteOffset":52688,"byteLength":120,"target":34963},{"buffer":0,"byteOffset":52808,"byteLength":1080,"target":34962,"byteStride":12},{"buffer":0,"byteOffset":53888,"byteLength":1080,"target":34962,"byteStride":12},{"buffer":0,"byteOffset":54968,"byteLength":720,"target":34962,"byteStride":8},{"buffer":0,"byteOffset":55688,"byteLength":240,"target":34963},{"buffer":0,"byteOffset":55928,"byteLength":1176,"target":34962,"byteStride":12},{"buffer":0,"byteOffset":57104,"byteLength":1176,"target":34962,"byteStride":12},{"buffer":0,"byteOffset":58280,"byteLength":784,"target":34962,"byteStride":8},{"buffer":0,"byteOffset":59064,"byteLength":252,"target":34963}],"buffers":[{"byteLength":59316,"uri":"data:application/octet-stream;base64,"}],"accessors":[{"bufferView":0,"componentType":5126,"count":162,"max":[0.11485026776790619,0.48876506090164185,0.1483273208141327],"min":[-0.11485026776790619,-0.011510572396218777,-0.11832713335752487],"type":"VEC3"},{"bufferView":1,"componentType":5126,"count":162,"max":[0.9998937249183655,0.9971803426742554,0.9700835347175598],"min":[-0.9998937249183655,-0.9052306413650513,-0.9999681711196899],"type":"VEC3"},{"bufferView":2,"componentType":5126,"count":162,"max":[0.45742499828338623,0.53125],"min":[0,0],"type":"VEC2"},{"bufferView":3,"componentType":5123,"count":198,"max":[161],"min":[0],"type":"SCALAR"},{"bufferView":4,"componentType":5126,"count":110,"max":[0.04911455139517784,0.45873525738716125,0.18316420912742615],"min":[-0.04694949835538864,0.0006545602227561176,-0.04438119754195213],"type":"VEC3"},{"bufferView":5,"componentType":5126,"count":110,"max":[0.968539834022522,0.9867669343948364,0.8255013227462769],"min":[-0.9603399634361267,-0.9396926164627075,-0.9993730783462524],"type":"VEC3"},{"bufferView":6,"componentType":5126,"count":110,"max":[0.04540624842047691,0.21875],"min":[0,0],"type":"VEC2"},{"bufferView":7,"componentType":5123,"count":150,"max":[109],"min":[0],"type":"SCALAR"},{"bufferView":8,"componentType":5126,"count":98,"max":[0.060913652181625366,0.11251522600650787,0.05621955171227455],"min":[-0.060913652181625366,-0.11874999850988388,-0.07936881482601166],"type":"VEC3"},{"bufferView":9,"componentType":5126,"count":98,"max":[0.9672530293464661,0.8444499969482422,0.9382196068763733],"min":[-0.9672530293464661,-0.7940834760665894,-0.8730103373527527],"type":"VEC3"},{"bufferView":10,"componentType":5126,"count":98,"max":[0.21068750321865082,0.1674249768257141],"min":[0,0],"type":"VEC2"},{"bufferView":11,"componentType":5123,"count":126,"max":[97],"min":[0],"type":"SCALAR"},{"bufferView":12,"componentType":5126,"count":16,"max":[0.012500000186264515,0.2525610029697418,0.009099124930799007],"min":[-0.012500000186264515,-0.04743899032473564,-0.0034008752554655075],"type":"VEC3"},{"bufferView":13,"componentType":5126,"count":16,"max":[0.9991330504417419,0.041630543768405914,0.9997830390930176],"min":[-0.9991330504417419,-1,-0.9997830390930176],"type":"VEC3"},{"bufferView":14,"componentType":5126,"count":16,"max":[0.03125,0.15703123807907104],"min":[0,0],"type":"VEC2"},{"bufferView":15,"componentType":5123,"count":18,"max":[15],"min":[0],"type":"SCALAR"},{"bufferView":16,"componentType":5126,"count":16,"max":[0.012500000186264515,0.25269314646720886,0.01097110752016306],"min":[-0.012500000186264515,-0.0473068505525589,-0.0015288920840248466],"type":"VEC3"},{"bufferView":17,"componentType":5126,"count":16,"max":[0.9991330504417419,0.041630543768405914,0.9997830390930176],"min":[-0.9991330504417419,-1,-0.9997830390930176],"type":"VEC3"},{"bufferView":18,"componentType":5126,"count":16,"max":[0.03125,0.15703123807907104],"min":[0,0],"type":"VEC2"},{"bufferView":19,"componentType":5123,"count":18,"max":[15],"min":[0],"type":"SCALAR"},{"bufferView":20,"componentType":5126,"count":98,"max":[0.008815260604023933,0.012500000186264515,0.0062500000931322575],"min":[-0.008815260604023933,-0.012500000186264515,-0.009684883058071136],"type":"VEC3"},{"bufferView":21,"componentType":5126,"count":98,"max":[0.9377031922340393,0.8429841995239258,0.9700822830200195],"min":[-0.9377031922340393,-0.8429841995239258,-0.8851025104522705],"type":"VEC3"},{"bufferView":22,"componentType":5126,"count":98,"max":[0.015049999579787254,0.011956274509429932],"min":[0,0],"type":"VEC2"},{"bufferView":23,"componentType":5123,"count":126,"max":[97],"min":[0],"type":"SCALAR"},{"bufferView":24,"componentType":5126,"count":98,"max":[0.008815260604023933,0.012500000186264515,0.0062500000931322575],"min":[-0.008815260604023933,-0.012500000186264515,-0.009684883058071136],"type":"VEC3"},{"bufferView":25,"componentType":5126,"count":98,"max":[0.9377031922340393,0.8429841995239258,0.9700822830200195],"min":[-0.9377031922340393,-0.8429841995239258,-0.8851025104522705],"type":"VEC3"},{"bufferView":26,"componentType":5126,"count":98,"max":[0.015049999579787254,0.011956274509429932],"min":[0,0],"type":"VEC2"},{"bufferView":27,"componentType":5123,"count":126,"max":[97],"min":[0],"type":"SCALAR"},{"bufferView":28,"componentType":5126,"count":72,"max":[0.11874999850988388,0.010075374506413937,0.4045856297016144],"min":[-0.11874999850988388,-0.08357496559619904,-0.014231829904019833],"type":"VEC3"},{"bufferView":29,"componentType":5126,"count":72,"max":[0.9983955025672913,0.9475334286689758,0.9527500867843628],"min":[-0.9983955025672913,-0.9475334286689758,-0.9930614233016968],"type":"VEC3"},{"bufferView":30,"componentType":5126,"count":72,"max":[0.5,0.5],"min":[0,0],"type":"VEC2"},{"bufferView":31,"componentType":5123,"count":108,"max":[71],"min":[0],"type":"SCALAR"},{"bufferView":32,"componentType":5126,"count":152,"max":[0.021782519295811653,0.0300699882209301,0.22019709646701813],"min":[-0.9930559396743774,-0.026246264576911926,-0.24355249106884003],"type":"VEC3"},{"bufferView":33,"componentType":5126,"count":152,"max":[0.9999995231628418,0.9999855160713196,0.9868974685668945],"min":[-0.9773374795913696,-0.9999264478683472,-0.9997159838676453],"type":"VEC3"},{"bufferView":34,"componentType":5126,"count":152,"max":[0.5,0.5],"min":[0,0],"type":"VEC2"},{"bufferView":35,"componentType":5123,"count":228,"max":[151],"min":[0],"type":"SCALAR"},{"bufferView":36,"componentType":5126,"count":152,"max":[0.9930559396743774,0.0300699882209301,0.22019709646701813],"min":[-0.021782519295811653,-0.026246264576911926,-0.24355249106884003],"type":"VEC3"},{"bufferView":37,"componentType":5126,"count":152,"max":[0.9773374795913696,0.9999855160713196,0.9868974685668945],"min":[-0.9999995231628418,-0.9999264478683472,-0.9997159838676453],"type":"VEC3"},{"bufferView":38,"componentType":5126,"count":152,"max":[0.5,0.5],"min":[0,0],"type":"VEC2"},{"bufferView":39,"componentType":5123,"count":228,"max":[151],"min":[0],"type":"SCALAR"},{"bufferView":40,"componentType":5126,"count":130,"max":[0.015910252928733826,0.125,0.02187499962747097],"min":[-0.015910252928733826,-0.23749999701976776,-0.058658987283706665],"type":"VEC3"},{"bufferView":41,"componentType":5126,"count":130,"max":[0.9783092141151428,1,0.9992009401321411],"min":[-0.9791127443313599,-1,-0.8089962601661682],"type":"VEC3"},{"bufferView":42,"componentType":5126,"count":130,"max":[0.36326876282691956,0.36327117681503296],"min":[0,0],"type":"VEC2"},{"bufferView":43,"componentType":5123,"count":180,"max":[129],"min":[0],"type":"SCALAR"},{"bufferView":44,"componentType":5126,"count":50,"max":[0.01875000074505806,0.015625,0.01277780532836914],"min":[-0.01875000074505806,-0.015625,-0.01785000041127205],"type":"VEC3"},{"bufferView":45,"componentType":5126,"count":50,"max":[0.9274929761886597,0.8936160206794739,1],"min":[-0.9274929761886597,-0.8936160206794739,-0.8246840238571167],"type":"VEC3"},{"bufferView":46,"componentType":5126,"count":50,"max":[0.009831249713897705,0.0078125],"min":[0,0],"type":"VEC2"},{"bufferView":47,"componentType":5123,"count":60,"max":[49],"min":[0],"type":"SCALAR"},{"bufferView":48,"componentType":5126,"count":90,"max":[0.017472751438617706,0.0859375,0.01700184866786003],"min":[-0.017472751438617706,-0.20606745779514313,-0.023982645943760872],"type":"VEC3"},{"bufferView":49,"componentType":5126,"count":90,"max":[0.9301319122314453,1,0.9986823201179504],"min":[-0.9301319122314453,-1,-0.8901455402374268],"type":"VEC3"},{"bufferView":50,"componentType":5126,"count":90,"max":[0.36326876282691956,0.36327117681503296],"min":[0,0],"type":"VEC2"},{"bufferView":51,"componentType":5123,"count":120,"max":[89],"min":[0],"type":"SCALAR"},{"bufferView":52,"componentType":5126,"count":98,"max":[0.021315261721611023,0.012500000186264515,0.01875000074505806],"min":[-0.021315261721611023,-0.012500000186264515,-0.022184884175658226],"type":"VEC3"},{"bufferView":53,"componentType":5126,"count":98,"max":[0.8159602880477905,0.9671002626419067,0.8411625027656555],"min":[-0.8159602880477905,-0.9671002626419067,-0.7593767046928406],"type":"VEC3"},{"bufferView":54,"componentType":5126,"count":98,"max":[0.015049999579787254,0.011956274509429932],"min":[0,0],"type":"VEC2"},{"bufferView":55,"componentType":5123,"count":126,"max":[97],"min":[0],"type":"SCALAR"},{"bufferView":56,"componentType":5126,"count":130,"max":[0.015910252928733826,0.125,0.02187499962747097],"min":[-0.015910252928733826,-0.23749999701976776,-0.058658987283706665],"type":"VEC3"},{"bufferView":57,"componentType":5126,"count":130,"max":[0.9791127443313599,1,0.9992009401321411],"min":[-0.9783092141151428,-1,-0.8089962601661682],"type":"VEC3"},{"bufferView":58,"componentType":5126,"count":130,"max":[0.36326876282691956,0.36327117681503296],"min":[0,0],"type":"VEC2"},{"bufferView":59,"componentType":5123,"count":180,"max":[129],"min":[0],"type":"SCALAR"},{"bufferView":60,"componentType":5126,"count":50,"max":[0.01875000074505806,0.015625,0.01277780532836914],"min":[-0.01875000074505806,-0.015625,-0.01785000041127205],"type":"VEC3"},{"bufferView":61,"componentType":5126,"count":50,"max":[0.9274929761886597,0.8936160206794739,1],"min":[-0.9274929761886597,-0.8936160206794739,-0.8246840238571167],"type":"VEC3"},{"bufferView":62,"componentType":5126,"count":50,"max":[0.009831249713897705,0.0078125],"min":[0,0],"type":"VEC2"},{"bufferView":63,"componentType":5123,"count":60,"max":[49],"min":[0],"type":"SCALAR"},{"bufferView":64,"componentType":5126,"count":90,"max":[0.017472751438617706,0.0859375,0.01700184866786003],"min":[-0.017472751438617706,-0.20606745779514313,-0.023982645943760872],"type":"VEC3"},{"bufferView":65,"componentType":5126,"count":90,"max":[0.9301319122314453,1,0.9986823201179504],"min":[-0.9301319122314453,-1,-0.8901455402374268],"type":"VEC3"},{"bufferView":66,"componentType":5126,"count":90,"max":[0.36326876282691956,0.36327117681503296],"min":[0,0],"type":"VEC2"},{"bufferView":67,"componentType":5123,"count":120,"max":[89],"min":[0],"type":"SCALAR"},{"bufferView":68,"componentType":5126,"count":98,"max":[0.021315261721611023,0.012500000186264515,0.01875000074505806],"min":[-0.021315261721611023,-0.012500000186264515,-0.022184884175658226],"type":"VEC3"},{"bufferView":69,"componentType":5126,"count":98,"max":[0.8159602880477905,0.9671002626419067,0.8411625027656555],"min":[-0.8159602880477905,-0.9671002626419067,-0.7593767046928406],"type":"VEC3"},{"bufferView":70,"componentType":5126,"count":98,"max":[0.015049999579787254,0.011956274509429932],"min":[0,0],"type":"VEC2"},{"bufferView":71,"componentType":5123,"count":126,"max":[97],"min":[0],"type":"SCALAR"}],"materials":[{"pbrMetallicRoughness":{"metallicFactor":0,"roughnessFactor":1},"alphaMode":"MASK","alphaCutoff":0.05,"doubleSided":true},{"pbrMetallicRoughness":{"metallicFactor":0,"roughnessFactor":1},"alphaMode":"MASK","alphaCutoff":0.05,"doubleSided":true}],"meshes":[{"primitives":[{"mode":4,"attributes":{"POSITION":0,"NORMAL":1,"TEXCOORD_0":2},"indices":3,"material":0}]},{"primitives":[{"mode":4,"attributes":{"POSITION":4,"NORMAL":5,"TEXCOORD_0":6},"indices":7,"material":1}]},{"primitives":[{"mode":4,"attributes":{"POSITION":8,"NORMAL":9,"TEXCOORD_0":10},"indices":11,"material":1}]},{"primitives":[{"mode":4,"attributes":{"POSITION":12,"NORMAL":13,"TEXCOORD_0":14},"indices":15,"material":1}]},{"primitives":[{"mode":4,"attributes":{"POSITION":16,"NORMAL":17,"TEXCOORD_0":18},"indices":19,"material":1}]},{"primitives":[{"mode":4,"attributes":{"POSITION":20,"NORMAL":21,"TEXCOORD_0":22},"indices":23,"material":1}]},{"primitives":[{"mode":4,"attributes":{"POSITION":24,"NORMAL":25,"TEXCOORD_0":26},"indices":27,"material":1}]},{"primitives":[{"mode":4,"attributes":{"POSITION":28,"NORMAL":29,"TEXCOORD_0":30},"indices":31,"material":1}]},{"primitives":[{"mode":4,"attributes":{"POSITION":32,"NORMAL":33,"TEXCOORD_0":34},"indices":35,"material":1}]},{"primitives":[{"mode":4,"attributes":{"POSITION":36,"NORMAL":37,"TEXCOORD_0":38},"indices":39,"material":1}]},{"primitives":[{"mode":4,"attributes":{"POSITION":40,"NORMAL":41,"TEXCOORD_0":42},"indices":43,"material":0}]},{"primitives":[{"mode":4,"attributes":{"POSITION":44,"NORMAL":45,"TEXCOORD_0":46},"indices":47,"material":0}]},{"primitives":[{"mode":4,"attributes":{"POSITION":48,"NORMAL":49,"TEXCOORD_0":50},"indices":51,"material":0}]},{"primitives":[{"mode":4,"attributes":{"POSITION":52,"NORMAL":53,"TEXCOORD_0":54},"indices":55,"material":0}]},{"primitives":[{"mode":4,"attributes":{"POSITION":56,"NORMAL":57,"TEXCOORD_0":58},"indices":59,"material":0}]},{"primitives":[{"mode":4,"attributes":{"POSITION":60,"NORMAL":61,"TEXCOORD_0":62},"indices":63,"material":0}]},{"primitives":[{"mode":4,"attributes":{"POSITION":64,"NORMAL":65,"TEXCOORD_0":66},"indices":67,"material":0}]},{"primitives":[{"mode":4,"attributes":{"POSITION":68,"NORMAL":69,"TEXCOORD_0":70},"indices":71,"material":0}]}]}