{"asset":{"version":"2.0","generator":"Blockbench 4.10.4 glTF exporter"},"scenes":[{"nodes":[2],"name":"blockbench_export"}],"scene":0,"nodes":[{"name":"cylinder","mesh":0},{"translation":[0,5.8125,0],"name":"pyramid","mesh":1},{"children":[0,1]}],"bufferViews":[{"buffer":0,"byteOffset":0,"byteLength":1872,"target":34962,"byteStride":12},{"buffer":0,"byteOffset":1872,"byteLength":1872,"target":34962,"byteStride":12},{"buffer":0,"byteOffset":3744,"byteLength":1248,"target":34962,"byteStride":8},{"buffer":0,"byteOffset":4992,"byteLength":432,"target":34963},{"buffer":0,"byteOffset":5424,"byteLength":672,"target":34962,"byteStride":12},{"buffer":0,"byteOffset":6096,"byteLength":672,"target":34962,"byteStride":12},{"buffer":0,"byteOffset":6768,"byteLength":448,"target":34962,"byteStride":8},{"buffer":0,"byteOffset":7216,"byteLength":132,"target":34963}],"buffers":[{"byteLength":7348,"uri":"data:application/octet-stream;base64,"}],"accessors":[{"bufferView":0,"componentType":5126,"count":156,"max":[0.5625,1.875,0.5],"min":[-0.5625,-1.375,-0.5],"type":"VEC3"},{"bufferView":1,"componentType":5126,"count":156,"max":[0.8715755343437195,1,1],"min":[-0.8715755343437195,-1,-1],"type":"VEC3"},{"bufferView":2,"componentType":5126,"count":156,"max":[0.5234375,0.625],"min":[0,0],"type":"VEC2"},{"bufferView":3,"componentType":5123,"count":216,"max":[155],"min":[0],"type":"SCALAR"},{"bufferView":4,"componentType":5126,"count":56,"max":[0.125,0.5,0.125],"min":[-0.125,-3.9375,-0.125],"type":"VEC3"},{"bufferView":5,"componentType":5126,"count":56,"max":[1,1,1],"min":[-1,-1,-1],"type":"VEC3"},{"bufferView":6,"componentType":5126,"count":56,"max":[0.578125,0.984375],"min":[0,0],"type":"VEC2"},{"bufferView":7,"componentType":5123,"count":66,"max":[55],"min":[0],"type":"SCALAR"}],"materials":[{"pbrMetallicRoughness":{"metallicFactor":0,"roughnessFactor":1,"baseColorTexture":{"index":0}},"alphaMode":"MASK","alphaCutoff":0.05,"doubleSided":true},{"pbrMetallicRoughness":{"metallicFactor":0,"roughnessFactor":1,"baseColorTexture":{"index":1}},"alphaMode":"MASK","alphaCutoff":0.05,"doubleSided":true}],"textures":[{"sampler":0,"source":0,"name":"screw"},{"sampler":1,"source":1,"name":"texture"}],"samplers":[{"magFilter":9728,"minFilter":9728,"wrapS":33071,"wrapT":33071},{"magFilter":9728,"minFilter":9728,"wrapS":33071,"wrapT":33071}],"images":[{"mimeType":"image/png","uri":"data:image/png;base64,"},{"mimeType":"image/png","uri":"data:image/png;base64,"}],"meshes":[{"primitives":[{"mode":4,"attributes":{"POSITION":0,"NORMAL":1,"TEXCOORD_0":2},"indices":3,"material":0}]},{"primitives":[{"mode":4,"attributes":{"POSITION":4,"NORMAL":5,"TEXCOORD_0":6},"indices":7,"material":1}]}]}