{
  "accessors": [
    {
      "bufferView": 2,
      "componentType": 5126,
      "count": 6488,
      "max": [
        11.096099853515625,
        88.068603515625,
        12.057900428771973
      ],
      "min": [
        -21.87179946899414,
        43.60029983520508,
        0.05609999969601631
      ],
      "type": "VEC3"
    },
    {
      "bufferView": 2,
      "byteOffset": 77856,
      "componentType": 5126,
      "count": 6488,
      "max": [
        0.9998728036880493,
        0.9998582601547241,
        0.9999985694885254
      ],
      "min": [
        -0.9999030828475952,
        -0.9999030828475952,
        -0.9999985694885254
      ],
      "type": "VEC3"
    },
    {
      "bufferView": 1,
      "componentType": 5126,
      "count": 6488,
      "max": [
        8.967300415039063,
        1.0017000436782837
      ],
      "min": [
        -18.874799728393555,
        -22.153900146484375
      ],
      "type": "VEC2"
    },
    {
      "bufferView": 0,
      "componentType": 5125,
      "count": 36864,
      "type": "SCALAR"
    }
  ],
  "asset": {
    "extras": {
      "author": "Ivan_Valbuena (https://sketchfab.com/Ivan_Valbuena)",
      "license": "CC-BY-4.0 (http://creativecommons.org/licenses/by/4.0/)",
      "source": "https://sketchfab.com/3d-models/broken-wine-bottle-a3c190342c6a4ea2b7fd0428ee1c0d97",
      "title": "Broken Wine Bottle"
    },
    "generator": "Sketchfab-12.67.0",
    "version": "2.0"
  },
  "bufferViews": [
    {
      "buffer": 0,
      "byteLength": 147456,
      "name": "floatBufferViews",
      "target": 34963
    },
    {
      "buffer": 0,
      "byteLength": 51904,
      "byteOffset": 147456,
      "byteStride": 8,
      "name": "floatBufferViews",
      "target": 34962
    },
    {
      "buffer": 0,
      "byteLength": 155712,
      "byteOffset": 199360,
      "byteStride": 12,
      "name": "floatBufferViews",
      "target": 34962
    }
  ],
  "buffers": [
    {
      "byteLength": 355072,
      "uri": "scene.bin"
    }
  ],
  "materials": [
    {
      "alphaMode": "BLEND",
      "doubleSided": true,
      "name": "Botella_1hdd",
      "pbrMetallicRoughness": {
        "baseColorFactor": [
          0.0120025276,
          0.1167337209,
          0.0037813377,
          0.8885289634
        ],
        "metallicFactor": 0.6358612805,
        "roughnessFactor": 0.0
      }
    }
  ],
  "meshes": [
    {
      "name": "Botella_rota_parte_de_abajo__Botella 1hdd_0",
      "primitives": [
        {
          "attributes": {
            "NORMAL": 1,
            "POSITION": 0,
            "TEXCOORD_0": 2
          },
          "indices": 3,
          "material": 0,
          "mode": 4
        }
      ]
    }
  ],
  "nodes": [
    {
      "children": [
        1
      ],
      "matrix": [
        1.0,
        0.0,
        0.0,
        0.0,
        0.0,
        2.220446049250313e-16,
        -1.0,
        0.0,
        0.0,
        1.0,
        2.220446049250313e-16,
        0.0,
        0.0,
        0.0,
        0.0,
        1.0
      ],
      "name": "Sketchfab_model"
    },
    {
      "children": [
        2
      ],
      "matrix": [
        1.0,
        0.0,
        0.0,
        0.0,
        0.0,
        0.0,
        1.0,
        0.0,
        0.0,
        -1.0,
        0.0,
        0.0,
        0.0,
        0.0,
        0.0,
        1.0
      ],
      "name": "59a4c096199948958c92d3c3a9c62149.fbx"
    },
    {
      "children": [
        3
      ],
      "name": "RootNode"
    },
    {
      "children": [
        4
      ],
      "matrix": [
        -0.02065623410512507,
        -1.6653345369377348e-16,
        0.9997866372344624,
        0.0,
        0.9997866372344624,
        -8.881784197001252e-16,
        0.02065623410512485,
        0.0,
        7.216449660063518e-16,
        1.0000000000000002,
        0.0,
        0.0,
        0.190948486328125,
        6.057000160217285,
        -0.1601104736328125,
        1.0
      ],
      "name": "Botella_rota_parte_de_abajo"
    },
    {
      "children": [
        5
      ],
      "matrix": [
        1.0,
        0.0,
        -0.0,
        0.0,
        0.0,
        1.0,
        0.0,
        0.0,
        0.0,
        0.0,
        1.0,
        0.0,
        5.387849807739258,
        -65.83445739746094,
        -6.057000160217285,
        1.0
      ],
      "name": "Object_4"
    },
    {
      "mesh": 0,
      "name": "Botella_rota_parte_de_abajo__Botella 1hdd_0"
    }
  ],
  "scene": 0,
  "scenes": [
    {
      "name": "Sketchfab_Scene",
      "nodes": [
        0
      ]
    }
  ]
}
